<?xml version="1.0" encoding="UTF-8"?>
<svg width="516px" height="78px" viewBox="0 0 516 78" version="1.1" xmlns="http://www.w3.org/2000/svg" xmlns:xlink="http://www.w3.org/1999/xlink">
    <title>Group 2</title>
    <g id="Page-1" stroke="none" stroke-width="1" fill="none" fill-rule="evenodd">
        <g id="Artboard-Copy" transform="translate(-61.000000, -91.000000)">
            <g id="Group-2" transform="translate(64.000000, 79.000000)">
                <g id="Group">
                    <circle id="Oval-Copy" stroke="#3CDAC8" stroke-width="9" fill="#FFFFFF" cx="33" cy="54" r="31"></circle>
                    <circle id="Oval-Copy-2" stroke="#3CDAC8" stroke-width="8" fill="#FFFFFF" cx="33" cy="54" r="15"></circle>
                    <circle id="Oval-Copy-3" fill="#3CDAC8" cx="33" cy="54" r="5"></circle>
                    <path d="M44.4472136,23.2859127 C44.2002243,23.1624181 43.9265615,23.1507268 43.6837722,23.2316566 C43.440983,23.3125863 43.2290674,23.486137 43.1055728,23.7331263 L27.4318107,55.0806504 C26.6681058,56.6080602 26.2705098,58.292304 26.2705098,60 C26.2705098,63.0375661 27.5017268,65.7875661 29.4923352,67.7781746 C31.4829437,69.7687831 34.2329437,71 37.2705098,71 L50.7294902,71 C52.4371862,71 54.1214299,70.602404 55.6488397,69.8386991 C58.3657215,68.4802582 60.2747793,66.1491869 61.1650064,63.4785054 C62.0552336,60.8078239 61.9266301,57.7975322 60.5681893,55.0806504 L44.8944272,23.7331263 C44.7976635,23.5395989 44.640741,23.3826764 44.4472136,23.2859127 Z" id="Triangle-Copy-2" stroke="#FFFFFF" stroke-width="8" fill="#3CDAC8" transform="translate(44.000000, 44.000000) rotate(-135.000000) translate(-44.000000, -44.000000) "></path>
                </g>
                <path d="M99.1456006,82 L99.1456006,60.4680005 L112.936801,60.4680005 L112.936801,82 L129.1088,82 L129.1088,26 L112.936801,26 L112.936801,47.0528003 L99.1456006,47.0528003 L99.1456006,26 L82.9488,26 L82.9488,82 L99.1456006,82 Z M154.428799,82.9111987 C159.6528,82.9111987 165.1176,81.8712 167.8496,81.0712 L169.867999,69.2928003 C167.117599,70.2528003 161.486399,71.4528003 156.439999,71.4528003 C150.039999,71.4528003 147.166399,69.4712 146.649598,65.0776001 L171.363198,65.0776001 L171.363198,60.8495996 C171.363198,46.1479993 164.329598,39.7359998 152.200798,39.7359998 C138.902399,39.7359998 132.028799,47.3176001 132.028799,61.6007996 C132.028799,75.7791992 138.835199,82.9111987 154.428799,82.9111987 Z M158.442399,56.7016003 L146.595199,56.7016003 C146.995199,52.2831995 149.179999,49.9383997 152.669598,49.9383997 C156.109598,49.9383997 158.177599,51.9135999 158.442399,56.7016003 Z M184.589597,82.9128003 L184.5896,82.9112 C190.4848,82.9112 194.0352,80.4247998 195.296801,77.8712 L196.896801,82.0007996 L210.0288,82.0007996 L210.0288,56.2471997 C210.0288,45.8783997 204.312,39.9215991 190.865599,39.9215991 C185.068799,39.9215991 179.653599,40.7215991 177.173599,41.3367993 L175.130399,53.2567993 C177.733599,52.4263989 182.976798,51.3799988 187.807198,51.3799988 C193.351998,51.3799988 195.296798,52.6903992 195.296798,56.1367993 L195.296798,56.8631995 L186.699998,56.8631995 C176.804797,56.8631995 171.709597,61.62 171.709597,69.7247998 C171.709597,77.9215991 176.097598,82.9128003 184.589597,82.9128003 Z M189.925598,72.5008008 L189.924797,72.5008008 C187.094397,72.5008008 185.555997,71.2944006 185.555997,68.5928003 C185.555997,65.9712 186.983998,64.6543994 189.925598,64.6543994 L195.297598,64.6543994 L195.297598,67.423999 C195.297598,71.2391992 193.457598,72.5008008 189.925598,72.5008008 Z M229.0088,82 L229.0088,25.0895996 L213.8888,27.2431995 L213.8888,82 L229.0088,82 Z M252.2784,82.855199 C256.370399,82.855199 259.915199,81.9199988 261.478398,81.1999988 L263.551998,69.5143982 C262.312617,69.9954893 259.867592,70.6959867 257.480484,70.7586743 L257.139,70.764 L256.905058,70.7612526 C253.337954,70.7012992 251.3984,69.2452417 251.3984,64.8127991 L251.3984,51.2367993 L262.4752,51.2367993 L262.4752,40.6463989 L251.3984,40.6463989 L251.3984,29.1631995 L236.2784,32.0927991 L236.2784,40.6463989 L230.1552,40.6463989 L230.1552,51.2367993 L236.2784,51.2367993 L236.2784,65.3663989 C236.2784,77.5695984 242.352,82.855199 252.2784,82.855199 Z M279.768801,82 L279.768801,57.2680005 C279.768801,53.5752002 281.018401,51.5752002 284.360001,51.5752002 C287.664801,51.5752002 288.778401,53.5752002 288.778401,57.2680005 L288.778401,82 L303.898401,82 L303.898401,53.2064001 C303.898401,45.3728003 299.707201,39.7352002 291.245601,39.7352002 C286.033601,39.7352002 282.612001,41.7047998 279.768801,44.8495996 L279.768801,25.0895996 L264.648801,27.2431995 L264.648801,82 L279.768801,82 Z" id="Health" fill="#3C77DA" fill-rule="nonzero"></path>
                <path d="M324.575199,82 L338.112799,56.1871997 L342.690399,82 L357.993599,82 L378.491199,26 L362.66,26 L351.612,60.5935999 L345.027999,26 L341.281599,26 L322.442399,60.8280005 L323.564799,26 L308.425598,26 L309.271199,82 L324.575199,82 Z M378.047999,41.4056006 L374.074399,52.8272009 C376.770399,51.7112012 381.885599,50.9672009 386.661599,50.9672009 C392.339999,50.9672009 393.967999,52.3688013 393.295199,56.1552014 L393.136799,57.0704016 L384.790399,57.0704016 C374.356,57.0704016 369.372,60.9856018 368.036,68.1904016 C366.412,76.8040015 370.163199,82.9032019 378.395199,82.9032019 C384.313599,82.9032019 388.037599,80.3952014 389.536799,77.8728015 L390.335199,82.0000012 L402.959999,82.0000012 L407.152799,58.0728015 C409.282048,46.1960419 404.349648,40.0908671 391.799381,39.9675083 L391.408,39.966 L390.901088,39.9677516 C385.815858,40.0105537 380.753032,40.6856003 378.047999,41.4056006 Z M384.843198,72.8623987 L384.844799,72.8616003 C381.959198,72.8616003 380.867198,71.3847998 381.271199,68.7271997 C381.727198,65.9983997 383.303198,64.5455994 386.354398,64.5455994 L391.840798,64.5455994 L391.157599,68.4887988 C390.337599,71.5423987 388.269598,72.8623987 384.843198,72.8623987 Z M424.550399,82.8520007 C428.4096,82.8520007 432.096,81.9768005 433.790399,81.284801 L437.712799,69.9192004 C436.372,70.4792004 433.5872,71.1752002 431.1496,71.1752002 C427.456799,71.1752002 425.752799,69.6704004 426.533599,64.8832007 L429.0088,50.8128003 L439.983199,50.8128003 L441.7584,40.6816003 L430.790399,40.6816003 L432.797599,29.2720007 L417.837599,32.1632007 L416.346399,40.6816003 L410.312799,40.6816003 L408.4296,50.8128003 L414.572,50.8128003 L412.185599,64.4456006 C409.921599,77.2280005 415.484799,82.8520007 424.550399,82.8520007 Z M454.199197,82.9040002 C459.0512,82.9040002 463.5976,81.7040002 465.6408,80.8240002 L469.6424,69.1344006 C467.3984,70.0704004 462.9048,71.3592004 459.027999,71.3592004 C453.382399,71.3592004 451.429598,68.5656006 452.638398,61.44 C453.927198,53.9328003 456.796798,51.0912 462.131198,51.0912 C465.787998,51.0912 469.527998,52.3152002 471.344799,53.2752002 L472.695999,41.8576001 C470.920798,40.9776001 466.694398,39.7776001 461.654398,39.7776001 C447.079999,39.7776001 440.638398,46.4992004 438.234398,60.0656006 C435.646398,74.6256006 441.040797,82.9040002 454.199197,82.9040002 Z M483.623999,82 L488.119999,56.4128003 C488.900798,53.0816003 490.600798,51.2272009 493.752798,51.2272009 C497.014398,51.2272009 497.879198,53.3704004 497.174398,57.2768005 L492.835198,82 L507.371198,82 L511.918397,56.1831995 C513.790397,45.643999 509.937596,39.7775989 502.047196,39.7775989 C496.674399,39.7776001 493.270399,41.6023999 490.215199,44.4904004 L493.623999,25.0968005 L478.823999,27.2152002 L469.115999,82 L483.623999,82 Z" id="Watch" fill="#66A8FF" fill-rule="nonzero"></path>
            </g>
        </g>
    </g>
</svg>